<svg width="18" height="17" viewBox="0 0 18 17" fill="none" xmlns="http://www.w3.org/2000/svg">
<path d="M16.8545 10.7677C17.1845 11.0085 17.5813 11.1368 17.9998 11.1368V11.8451C17.419 11.847 16.8542 11.6652 16.3955 11.3287C16.2085 11.198 15.982 11.1274 15.7494 11.1274C15.5168 11.1274 15.2903 11.198 15.1033 11.3287C14.1793 12.0045 12.8195 12.0045 11.8955 11.3287C11.7085 11.198 11.482 11.1274 11.2494 11.1274C11.0168 11.1274 10.7903 11.198 10.6033 11.3287C9.67927 12.0045 8.31952 12.0045 7.39552 11.3287C7.20854 11.198 6.98204 11.1274 6.7494 11.1274C6.51676 11.1274 6.29026 11.198 6.10327 11.3287C5.17927 12.0045 3.81952 12.0045 2.89552 11.3287C2.70853 11.198 2.48204 11.1274 2.2494 11.1274C2.01676 11.1274 1.79026 11.198 1.60327 11.3287C1.1447 11.6654 0.579867 11.8472 -0.000976562 11.8451V11.1368C0.413751 11.1383 0.817026 11.0083 1.14427 10.7677C1.46218 10.5405 1.84996 10.4175 2.24865 10.4175C2.64734 10.4175 3.03512 10.5405 3.35302 10.7677C3.68324 11.0025 4.08534 11.1294 4.49865 11.1294C4.91196 11.1294 5.31405 11.0025 5.64427 10.7677C5.96218 10.5405 6.34996 10.4175 6.74865 10.4175C7.14734 10.4175 7.53512 10.5405 7.85302 10.7677C8.18324 11.0025 8.58534 11.1294 8.99865 11.1294C9.41196 11.1294 9.81405 11.0025 10.1443 10.7677C10.4622 10.5405 10.85 10.4175 11.2486 10.4175C11.6473 10.4175 12.0351 10.5405 12.353 10.7677C12.6832 11.0025 13.0853 11.1294 13.4986 11.1294C13.912 11.1294 14.3141 11.0025 14.6443 10.7677C14.9622 10.5405 15.35 10.4175 15.7486 10.4175C16.1473 10.4175 16.5351 10.5405 16.853 10.7677H16.8545ZM17.9998 5.39855V9.00042H-0.000226563V5.30292L11.6345 0.640674C11.9896 0.499501 12.382 0.464625 12.7588 0.540752C13.1355 0.61688 13.4784 0.800346 13.7413 1.06638L17.9998 5.39855ZM1.53127 5.45876H17.036L13.1915 1.54805C13.0339 1.38815 12.828 1.27792 12.6018 1.2323C12.3756 1.18668 12.14 1.20789 11.927 1.29305L1.53127 5.45876ZM17.2498 8.29209V6.16709H0.749773V8.29209H17.2498ZM-0.000226563 13.2504H17.9998V15.0213C17.9998 15.9973 17.159 16.7921 16.1248 16.7921H1.87477C1.37768 16.7915 0.901108 16.6048 0.549606 16.2728C0.198104 15.9408 0.000368884 15.4907 -0.000226563 15.0213V13.2504ZM0.749773 15.0213C0.749773 15.607 1.25452 16.0838 1.87477 16.0838H16.1248C16.745 16.0838 17.2498 15.607 17.2498 15.0213V13.9588H0.749773V15.0213Z" fill="white"/>
</svg>
