<svg width="25" height="24" viewBox="0 0 25 24" fill="none" xmlns="http://www.w3.org/2000/svg">
<path d="M6.05501 4V13C6.05501 15.2091 7.8623 17 10.0917 17H18.1651C20.3945 17 22.2018 15.2091 22.2018 13V8M6.05501 4C6.05501 2.89543 5.15136 2 4.03666 2H2.01831M6.05501 4H14.1284" stroke="black" stroke-opacity="0.72" stroke-linecap="round" stroke-linejoin="round"/>
<ellipse cx="19.1743" cy="4" rx="3.02752" ry="3" fill="#F25801"/>
<path d="M11.1009 20.5C11.1009 21.3284 10.4232 22 9.58713 22C8.7511 22 8.07336 21.3284 8.07336 20.5C8.07336 19.6716 8.7511 19 9.58713 19C10.4232 19 11.1009 19.6716 11.1009 20.5Z" stroke="black" stroke-opacity="0.72"/>
<path d="M20.1835 20.5C20.1835 21.3284 19.5058 22 18.6698 22C17.8337 22 17.156 21.3284 17.156 20.5C17.156 19.6716 17.8337 19 18.6698 19C19.5058 19 20.1835 19.6716 20.1835 20.5Z" stroke="black" stroke-opacity="0.72"/>
<path d="M11.101 12C13.4787 13.3404 14.782 13.3263 17.156 12" stroke="black" stroke-opacity="0.72" stroke-linecap="round" stroke-linejoin="round"/>
</svg>
