<svg width="17" height="18" viewBox="0 0 17 18" fill="none" xmlns="http://www.w3.org/2000/svg">
<g clip-path="url(#clip0_33_198)">
<path d="M17 10.0625C17 9.48377 16.7209 8.96881 16.2902 8.64581H16.2917V7.22915C16.2917 3.90919 13.5908 1.20831 10.2708 1.20831H6.72917C3.40921 1.20831 0.708333 3.90919 0.708333 7.22915V8.64581H0.70975C0.489436 8.8105 0.310569 9.0243 0.187361 9.27022C0.0641523 9.51615 -4.40626e-07 9.78742 0 10.0625L0 10.1836C0 10.7574 0.278375 11.2815 0.708333 11.6059V14.3125C0.708333 15.6796 1.82042 16.7916 3.1875 16.7916H13.8125C15.1796 16.7916 16.2917 15.6796 16.2917 14.3125V11.4791H16.2902C16.5106 11.3145 16.6894 11.1007 16.8126 10.8547C16.9358 10.6088 17 10.3375 17 10.0625ZM1.41667 7.22915C1.41667 4.29948 3.7995 1.91665 6.72917 1.91665H10.2708C13.2005 1.91665 15.5833 4.29948 15.5833 7.22915V8.32706C15.4668 8.3034 15.3481 8.29153 15.2292 8.29165H1.77083C1.64971 8.29165 1.53142 8.30369 1.41667 8.32706V7.22915ZM15.5833 14.3125C15.5833 15.2886 14.7893 16.0833 13.8125 16.0833H3.1875C2.71802 16.0828 2.26793 15.896 1.93595 15.564C1.60398 15.2321 1.41723 14.782 1.41667 14.3125V11.9169L1.43933 11.9211C2.67138 12.1223 3.82313 12.6624 4.76567 13.4809C5.12975 13.7961 5.57529 13.9541 6.02012 13.9541C6.46496 13.9541 6.91121 13.7961 7.27458 13.4809C8.4989 12.4182 10.0656 11.8329 11.6868 11.8326H15.2285C15.3496 11.8326 15.4679 11.8206 15.5826 11.7972V14.3118L15.5833 14.3125ZM15.2292 11.125H11.6875C9.89612 11.125 8.16425 11.7717 6.81062 12.9468C6.59234 13.1389 6.31157 13.2448 6.02083 13.2448C5.7301 13.2448 5.44932 13.1389 5.23104 12.9468C4.1893 12.0421 2.91645 11.4449 1.55479 11.222C1.07242 11.1434 0.709042 10.6964 0.709042 10.1836V10.0625C0.709042 9.47669 1.18575 8.99998 1.77154 8.99998H15.2299C15.8157 8.99998 16.2924 9.47669 16.2924 10.0625C16.2924 10.6483 15.815 11.125 15.2292 11.125ZM6.375 4.04165C6.375 3.85378 6.44963 3.67362 6.58247 3.54078C6.7153 3.40794 6.89547 3.33331 7.08333 3.33331C7.27119 3.33331 7.45136 3.40794 7.5842 3.54078C7.71704 3.67362 7.79167 3.85378 7.79167 4.04165C7.79167 4.22951 7.71704 4.40968 7.5842 4.54251C7.45136 4.67535 7.27119 4.74998 7.08333 4.74998C6.89547 4.74998 6.7153 4.67535 6.58247 4.54251C6.44963 4.40968 6.375 4.22951 6.375 4.04165ZM4.25 6.16665C4.25 5.97878 4.32463 5.79862 4.45747 5.66578C4.5903 5.53294 4.77047 5.45831 4.95833 5.45831C5.14619 5.45831 5.32636 5.53294 5.4592 5.66578C5.59204 5.79862 5.66667 5.97878 5.66667 6.16665C5.66667 6.35451 5.59204 6.53468 5.4592 6.66751C5.32636 6.80035 5.14619 6.87498 4.95833 6.87498C4.77047 6.87498 4.5903 6.80035 4.45747 6.66751C4.32463 6.53468 4.25 6.35451 4.25 6.16665Z" fill="white"/>
</g>
<defs>
<clipPath id="clip0_33_198">
<rect width="17" height="17" fill="white" transform="translate(0 0.5)"/>
</clipPath>
</defs>
</svg>
