<svg width="18" height="18" viewBox="0 0 18 18" fill="none" xmlns="http://www.w3.org/2000/svg">
<path d="M17.4864 0.986271C17.2508 0.762042 16.9516 0.606961 16.6247 0.539722C16.2979 0.472484 15.9575 0.495957 15.6444 0.607312L1.6637 5.90494C1.10441 6.11887 0.638744 6.50603 0.343143 7.00286C0.0475428 7.49969 -0.0604302 8.07668 0.0369478 8.6391C0.434444 10.8433 1.54713 12.8765 3.22121 14.4576C4.89528 16.0387 7.04806 17.0895 9.38195 17.4649C9.52745 17.4883 9.67295 17.4996 9.81695 17.4996C10.8797 17.4996 11.8719 16.8848 12.2777 15.9293L17.8922 2.7146C18.0076 2.42016 18.0307 2.10054 17.9587 1.79402C17.8868 1.4875 17.7228 1.20706 17.4864 0.986271ZM11.5824 15.6658C11.4202 16.0444 11.1265 16.3596 10.7495 16.5597C10.3726 16.7599 9.93474 16.8331 9.50795 16.7672C7.32737 16.4164 5.31604 15.4345 3.752 13.9572C2.18796 12.4799 1.14846 10.5803 0.777198 8.52081C0.70768 8.11784 0.785237 7.70451 0.997147 7.34864C1.20906 6.99277 1.54274 6.71549 1.94345 6.56227L3.01445 6.1564C3.1562 11.3747 6.48695 14.5204 12.0122 14.6543L11.5824 15.6658ZM14.3792 8.66815C13.9305 8.51229 13.5431 8.23038 13.2692 7.86034C12.9953 7.49031 12.8479 7.04991 12.8469 6.5984C12.8476 6.22648 12.9479 5.86078 13.1385 5.53532C13.329 5.20986 13.6037 4.93522 13.9369 4.73699C14.2701 4.53875 14.6509 4.42336 15.044 4.40154C15.4372 4.37973 15.8297 4.45221 16.1852 4.61223C16.2129 4.62498 16.2422 4.6271 16.2707 4.63277L14.5179 8.7574C14.4795 8.71819 14.432 8.68718 14.3792 8.66815ZM17.1924 2.46173L16.5407 3.99527C16.5287 3.98819 16.5212 3.97827 16.5084 3.9726C16.0386 3.76119 15.5197 3.66549 15.0002 3.69442C14.4806 3.72334 13.9773 3.87594 13.537 4.13802C13.0967 4.40009 12.7337 4.76312 12.482 5.19331C12.2302 5.6235 12.0977 6.10686 12.0969 6.5984C12.0981 7.19508 12.2928 7.77711 12.6548 8.26609C13.0169 8.75508 13.5289 9.12752 14.1219 9.33327C14.163 9.34751 14.2064 9.3547 14.2502 9.35452C14.2554 9.35452 14.2599 9.35027 14.2652 9.35027L12.3084 13.9566C6.97145 13.9311 3.7802 10.9164 3.7532 5.8766L15.9122 1.26819C16.0899 1.20464 16.2833 1.1915 16.4688 1.23038C16.6543 1.26927 16.8237 1.35848 16.9562 1.48706C17.2367 1.75198 17.3237 2.12102 17.1924 2.46173Z" fill="black" fill-opacity="0.5"/>
<path d="M7.875 6.16669C6.8415 6.16669 6 6.96073 6 7.93752C6 8.91431 6.8415 9.70835 7.875 9.70835C8.9085 9.70835 9.75 8.91431 9.75 7.93752C9.75 6.96073 8.9085 6.16669 7.875 6.16669ZM7.875 9.00002C7.25475 9.00002 6.75 8.52331 6.75 7.93752C6.75 7.35173 7.25475 6.87502 7.875 6.87502C8.49525 6.87502 9 7.35173 9 7.93752C9 8.52331 8.49525 9.00002 7.875 9.00002Z" fill="black" fill-opacity="0.5"/>
</svg>
