<svg width="16" height="20" viewBox="0 0 16 20" fill="none" xmlns="http://www.w3.org/2000/svg">
<path d="M14.2384 9.20834L15.3661 5.26901L12.6022 4.28734L13.0697 1.19588L9.5783 0.53009L9.34314 2.08334H5.65626L5.4218 0.53009L1.93043 1.19667L2.39793 4.28813L-0.365987 5.26901L0.761679 9.20834H-0.958862L0.484012 17.8826C0.559603 18.337 0.775084 18.7475 1.09309 19.0429C1.4111 19.3383 1.81158 19.5 2.2251 19.5H12.7906C13.2036 19.5 13.6036 19.3386 13.9214 19.0439C14.2392 18.7491 14.4548 18.3395 14.531 17.8858L15.9873 9.20834H14.2384ZM14.475 5.78359L13.4947 9.20834H11.8577L12.4825 5.07663L14.475 5.78359ZM12.253 1.84347L11.1388 9.20834H9.62434V4.97451L10.1577 1.44367L12.253 1.84347ZM6.08339 2.87501H8.91672V9.20834H6.08339V2.87501ZM4.84168 1.44367L5.37505 4.97451V9.20834H3.86064L2.74714 1.84347L4.84168 1.44367ZM0.525096 5.78359L2.51764 5.07663L3.14239 9.20834H1.50543L0.525096 5.78359ZM13.8347 17.7401C13.7889 18.0125 13.6595 18.2583 13.4687 18.4353C13.2779 18.6122 13.0378 18.7091 12.7899 18.7091H2.2251C1.97698 18.709 1.73671 18.6119 1.5459 18.4347C1.35509 18.2574 1.22576 18.0112 1.1803 17.7385L-0.106737 10H15.1331L13.8347 17.7393V17.7401Z" fill="black" fill-opacity="0.5"/>
</svg>
